<?xml version="1.0" encoding="iso-8859-1"?>
<!-- Uploaded to: SVG Repo, www.svgrepo.com, Generator: SVG Repo Mixer Tools -->
<svg height="800px" width="800px" version="1.1" id="Layer_1" xmlns="http://www.w3.org/2000/svg" xmlns:xlink="http://www.w3.org/1999/xlink" 
	 viewBox="0 0 512 512" xml:space="preserve">
<path style="fill:#FFD3AE;" d="M392.928,331.52v34.811c0,2.215-0.058,4.418-0.152,6.61c-2.11,44.219-25.193,82.947-59.503,106.45
	c-0.303,0.21-0.606,0.408-0.898,0.618c-21.824,14.678-48.09,23.246-76.372,23.246s-54.56-8.569-76.372-23.246
	c-0.291-0.21-0.606-0.408-0.898-0.618c-34.321-23.503-57.393-62.231-59.503-106.45c-0.093-2.192-0.152-4.395-0.152-6.61V331.52
	v-41.375v-4.104v-34.205c0-23.083,5.712-44.837,15.808-63.91l4.162-0.898c37.376-8.009,68.701-33.342,84.37-68.2
	c10.446-2.565,21.358-3.917,32.584-3.917c75.626,0,136.924,61.298,136.924,136.924v34.205v4.104L392.928,331.52L392.928,331.52z"/>
<path style="fill:#DBA983;" d="M237.922,480.009c-0.291-0.198-0.606-0.408-0.898-0.618c-34.31-23.503-57.393-62.231-59.503-106.45
	c-0.093-2.192-0.152-4.395-0.152-6.61V331.52v-41.375V273.3v-21.463c0-38.11,15.575-72.583,40.698-97.403
	c18.133-17.92,41.249-30.801,67.081-36.402c-9.393-2.037-19.141-3.119-29.145-3.119c-37.516,0-71.499,15.086-96.226,39.521
	c-25.123,24.82-40.698,59.293-40.698,97.403V273.3v16.846v41.375v34.811c0,2.215,0.058,4.418,0.152,6.61
	c2.11,44.219,25.193,82.947,59.503,106.45c0.291,0.21,0.606,0.42,0.898,0.618c21.812,14.678,48.09,23.258,76.372,23.258
	c10.005,0,19.751-1.094,29.144-3.131C267.986,496.413,252.018,489.494,237.922,480.009z"/>
<path style="fill:#F7B239;" d="M223.42,118.83c-6.878,15.319-16.788,28.795-28.9,39.777c-15.459,13.99-34.508,23.934-55.469,28.422
	l-4.162,0.898L124,129.042l-22.255-120.3l96.785,87.564l21.859,19.772L223.42,118.83z"/>
<path style="fill:#E09B2D;" d="M194.519,158.607c-15.459,13.99-34.508,23.934-55.469,28.422l-4.162,0.898L124,129.042l-22.255-120.3
	L194.519,158.607z"/>
<g>
	<path style="fill:#DBA983;" d="M119.08,366.331c0,2.215,0.058,4.418,0.152,6.61c-17.93-5.234-31.034-21.801-31.034-41.421
		c0-19.562,13.022-36.093,30.882-41.375v41.375C119.08,331.52,119.08,366.331,119.08,366.331z"/>
	<path style="fill:#DBA983;" d="M392.928,290.145c17.86,5.281,30.882,21.812,30.882,41.375c0,19.621-13.104,36.187-31.034,41.421
		c0.093-2.192,0.152-4.395,0.152-6.61V331.52V290.145z"/>
</g>
<path style="fill:#9AD14B;" d="M220.389,116.079L198.53,96.306v-0.012c-0.723-2.448-1.096-5.048-1.096-7.729
	c0-15.447,12.532-27.979,27.979-27.979c14.747,0,26.825,11.413,27.898,25.881c3.836-1.982,8.196-3.113,12.812-3.113
	c8.65,0,16.38,3.929,21.521,10.096c7.368-11.985,20.6-19.97,35.697-19.97c23.13,0,41.888,18.746,41.888,41.888
	c0,3.113-0.35,6.144-1.003,9.07c2.029-0.396,4.115-0.618,6.249-0.618c17.709,0,32.06,14.363,32.06,32.06
	c0,1.772-0.152,3.509-0.42,5.2c0.035,0,0.082-0.012,0.128-0.012c23.13,0,41.888,18.758,41.888,41.888
	c0,14.036-6.913,26.452-17.499,34.053c3.381,5.083,5.363,11.18,5.363,17.755c0,17.697-14.363,32.06-32.06,32.06
	c-2.413,0-4.756-0.268-7.007-0.781v-34.205c0-75.626-61.298-136.924-136.924-136.924c-11.227,0-22.139,1.352-32.584,3.917
	L220.389,116.079z"/>
<path style="fill:#90BC42;" d="M124,129.042l10.889,58.885c-10.096,19.073-15.808,40.827-15.808,63.91v34.205
	c-2.25,0.513-4.593,0.781-7.007,0.781c-17.697,0-32.06-14.363-32.06-32.06c0-6.575,1.982-12.672,5.363-17.755
	c-10.586-7.601-17.499-20.017-17.499-34.053c0-23.13,18.758-41.888,41.888-41.888c0.047,0,0.093,0.012,0.128,0.012
	c-0.268-1.69-0.42-3.427-0.42-5.2C109.474,144.652,115.256,134.766,124,129.042z"/>
<polygon style="fill:#FFFFFF;" points="329.334,245.332 362.023,291.638 329.334,362.88 296.656,291.638 "/>
<g>
	<path style="fill:#F95428;" d="M326.862,412.963c10.108,10.119,10.108,26.569,0,36.676c-4.896,4.896-11.413,7.601-18.338,7.601
		c-6.925,0-13.442-2.705-18.338-7.601c-9.117-9.117-21.253-14.13-34.17-14.13c-12.929,0-25.065,5.013-34.182,14.13
		c-4.896,4.896-11.413,7.601-18.338,7.601s-13.442-2.705-18.338-7.601c-4.896-4.896-7.589-11.413-7.589-18.338
		c0-6.925,2.693-13.442,7.589-18.338c18.898-18.886,44.044-29.297,70.846-29.297h0.012
		C282.806,383.667,307.964,394.066,326.862,412.963z"/>
	<path style="fill:#F95428;" d="M256.004,315.583c18.793,0,34.03,15.249,34.03,34.042c0,18.805-15.225,34.03-34.018,34.042h-0.012
		c-18.805,0-34.042-15.237-34.042-34.042C221.963,330.832,237.2,315.583,256.004,315.583z"/>
</g>
<path style="fill:#E54728;" d="M241.781,349.625c0-15.347,10.162-28.324,24.13-32.57c-3.135-0.954-6.461-1.471-9.907-1.471
	c-18.805,0-34.042,15.249-34.042,34.042c0,18.805,15.237,34.042,34.042,34.042h0.012c3.441-0.002,6.762-0.519,9.893-1.47
	C251.942,377.952,241.781,364.98,241.781,349.625z"/>
<polygon style="fill:#FFFFFF;" points="182.663,245.332 215.352,291.638 182.663,362.88 149.974,291.638 "/>
<g>
	<path style="fill:#333333;" d="M286.765,379.298c7.427-7.699,12.016-18.154,12.016-29.671c0-23.59-19.192-42.782-42.782-42.782
		s-42.782,19.192-42.782,42.782c0,11.517,4.586,21.976,12.015,29.673c-17.312,5.058-33.165,14.395-46.253,27.484
		c-6.548,6.55-10.155,15.257-10.155,24.519s3.607,17.97,10.157,24.519c6.548,6.548,15.257,10.155,24.518,10.155
		s17.97-3.607,24.518-10.155c7.462-7.462,17.406-11.572,27.996-11.572c10.59,0,20.532,4.109,27.995,11.572
		c6.549,6.549,15.257,10.157,24.519,10.157c9.26,0,17.969-3.607,24.519-10.157c13.519-13.52,13.519-35.519-0.001-49.037
		C319.949,393.69,304.086,384.354,286.765,379.298z M255.998,324.332c13.948,0,25.295,11.347,25.295,25.295
		s-11.347,25.295-25.295,25.295c-13.948,0-25.295-11.347-25.295-25.295S242.051,324.332,255.998,324.332z M320.679,443.456
		c-3.248,3.247-7.564,5.035-12.155,5.035s-8.908-1.788-12.155-5.034c-10.764-10.765-25.098-16.693-40.359-16.693
		c-15.262,0-29.595,5.928-40.359,16.693c-3.247,3.247-7.563,5.034-12.155,5.034s-8.908-1.787-12.154-5.034
		c-3.247-3.246-5.034-7.563-5.034-12.154s1.787-8.908,5.034-12.155c17.243-17.245,40.209-26.741,64.666-26.741
		s47.424,9.497,64.667,26.74C327.38,425.851,327.38,436.755,320.679,443.456z"/>
	<path style="fill:#333333;" d="M256.011,401.116c-22.112,0-42.887,8.597-58.497,24.206c-3.416,3.415-3.416,8.95-0.001,12.366
		c1.708,1.708,3.945,2.561,6.183,2.561c2.237,0,4.476-0.853,6.182-2.561c12.309-12.306,28.691-19.084,46.132-19.084
		c17.44,0,33.824,6.777,46.13,19.083c3.413,3.415,8.95,3.414,12.365,0c3.415-3.415,3.415-8.951-0.001-12.366
		C298.897,409.712,278.123,401.116,256.011,401.116z"/>
	<path style="fill:#333333;" d="M320.593,291.009v14.073c0,4.829,3.914,8.744,8.744,8.744s8.744-3.915,8.744-8.744v-14.073
		c0-4.829-3.914-8.744-8.744-8.744S320.593,286.181,320.593,291.009z"/>
	<path style="fill:#333333;" d="M329.337,236.589c-2.841,0-5.505,1.38-7.143,3.701l-32.687,46.3
		c-1.798,2.546-2.104,5.856-0.803,8.689l32.687,71.248c1.425,3.107,4.529,5.098,7.946,5.098s6.523-1.991,7.947-5.098l32.685-71.248
		c1.3-2.832,0.994-6.143-0.803-8.689l-32.686-46.3C334.842,237.97,332.178,236.589,329.337,236.589z M329.337,341.913l-22.641-49.35
		l22.641-32.069l22.64,32.069L329.337,341.913z"/>
	<path style="fill:#333333;" d="M191.404,305.081v-14.071c0-4.829-3.914-8.744-8.744-8.744c-4.83,0-8.744,3.915-8.744,8.744v14.073
		c0,4.829,3.914,8.744,8.744,8.744C187.491,313.825,191.404,309.911,191.404,305.081z"/>
	<path style="fill:#333333;" d="M182.661,371.625c3.418,0,6.523-1.991,7.946-5.098l32.686-71.248c1.3-2.832,0.994-6.143-0.803-8.689
		l-32.686-46.3c-1.638-2.321-4.302-3.701-7.143-3.701c-2.841,0-5.505,1.38-7.143,3.701l-32.687,46.3
		c-1.798,2.546-2.104,5.856-0.803,8.689l32.687,71.248C176.138,369.634,179.243,371.625,182.661,371.625z M182.661,260.494
		l22.64,32.069l-22.64,49.35l-22.641-49.35L182.661,260.494z"/>
	<path style="fill:#333333;" d="M440.735,254.764c0-5.406-1.059-10.696-3.101-15.62c9.648-9.461,15.237-22.514,15.237-36.189
		c0-24.868-18.02-45.605-41.689-49.841c-1.349-20.055-17.256-36.188-37.214-37.89c-0.077-27.852-22.76-50.488-50.631-50.488
		c-14.254,0-27.475,5.834-36.939,15.977c-5.947-3.945-12.971-6.103-20.278-6.103c-2.186,0-4.368,0.198-6.517,0.588
		c-5.395-13.696-18.813-23.356-34.193-23.356c-16.297,0-30.141,10.674-34.926,25.395L107.606,2.259
		c-2.779-2.515-6.856-2.977-10.127-1.151c-3.275,1.828-5.019,5.539-4.337,9.225l21.284,115.07
		c-7.979,7.082-12.887,16.984-13.608,27.711c-23.668,4.234-41.688,24.973-41.688,49.841c0,13.675,5.589,26.73,15.237,36.19
		c-2.042,4.922-3.101,10.212-3.101,15.618c0,17.181,10.68,31.905,25.745,37.911c-10.867,9.663-17.562,23.732-17.562,38.844
		c0,20.817,12.667,39.622,31.461,47.7c3.824,43.129,26.689,82.574,62.813,107.341c0.189,0.134,0.382,0.265,0.576,0.395l0.219,0.148
		c0.076,0.055,0.153,0.108,0.23,0.161C198.796,503.447,226.892,512,255.999,512c29.095,0,57.192-8.552,81.251-24.735
		c0.078-0.052,0.156-0.107,0.232-0.162c0.117-0.084,0.236-0.163,0.357-0.245l0.37-0.253c36.162-24.771,59.054-64.238,62.881-107.385
		c18.795-8.077,31.462-26.884,31.462-47.701c0-15.112-6.695-29.181-17.562-38.845C430.056,286.669,440.735,271.945,440.735,254.764z
		 M212.695,120.914c-14.503,27.897-40.399,48.562-70.868,56.478L115.038,32.565L212.695,120.914z M88.754,254.764
		c0-4.612,1.348-9.078,3.9-12.914c2.606-3.919,1.643-9.198-2.181-11.944c-8.675-6.229-13.854-16.304-13.854-26.951
		c0-18.181,14.714-32.99,32.859-33.143c0.141,0.007,0.28,0.01,0.413,0.01c2.558,0,4.988-1.12,6.65-3.067
		c1.661-1.946,2.388-4.522,1.985-7.05c-0.208-1.301-0.312-2.589-0.312-3.827c0-2.019,0.262-3.999,0.759-5.901l6.775,36.625
		c-10.084,20.103-15.413,42.584-15.413,65.234v26.155C98.286,277.098,88.754,267.034,88.754,254.764z M96.936,331.519
		c0-10.806,5.174-20.79,13.396-27.188v54.38C102.108,352.315,96.936,342.336,96.936,331.519z M384.181,366.332
		c0,42.321-20.88,81.89-55.89,105.873l-0.267,0.182c-0.212,0.145-0.421,0.287-0.628,0.434
		c-21.143,14.193-45.828,21.692-71.394,21.692c-25.58,0-50.267-7.502-71.4-21.696c-0.178-0.126-0.361-0.249-0.544-0.373
		l-0.219-0.148c-0.055-0.04-0.111-0.079-0.168-0.118c-34.972-23.948-55.85-63.517-55.85-105.846V251.838
		c0-19.5,4.476-38.854,12.971-56.235l0.092-0.02c38.492-8.252,71.307-33.964,88.618-69.17c8.656-1.828,17.551-2.756,26.5-2.756
		c70.68,0,128.181,57.501,128.181,128.181V366.332z M401.668,358.713V304.33c8.224,6.399,13.397,16.383,13.397,27.189
		C415.066,342.338,409.894,352.316,401.668,358.713z M419.348,241.852c2.551,3.836,3.9,8.301,3.9,12.913
		c0,12.27-9.533,22.333-21.579,23.228v-26.154c0-80.322-65.347-145.668-145.668-145.668c-10.152,0-20.248,1.054-30.08,3.128
		l-19.489-17.631c-0.166-1.008-0.259-2.044-0.259-3.101c0-10.607,8.629-19.236,19.236-19.236c10.015,0,18.438,7.811,19.178,17.783
		c0.218,2.927,1.889,5.552,4.451,6.984c2.565,1.434,5.675,1.484,8.282,0.136c2.744-1.418,5.705-2.137,8.8-2.137
		c5.725,0,11.122,2.533,14.805,6.951c1.804,2.163,4.548,3.323,7.343,3.122c2.808-0.202,5.346-1.744,6.821-4.142
		c6.086-9.898,16.645-15.806,28.249-15.806c18.275,0,33.144,14.869,33.144,33.144c0,2.398-0.267,4.809-0.793,7.167
		c-0.642,2.88,0.212,5.89,2.271,8.003c2.058,2.114,5.042,3.047,7.942,2.48c1.545-0.302,3.084-0.456,4.57-0.456
		c12.857,0,23.316,10.46,23.316,23.316c0,1.237-0.105,2.526-0.312,3.833c-0.4,2.526,0.326,5.1,1.988,7.045
		c1.756,2.054,4.407,3.186,7.076,3.054c18.139,0.162,32.844,14.968,32.844,33.143c0,10.646-5.18,20.721-13.856,26.951
		C417.704,232.652,416.74,237.932,419.348,241.852z"/>
	<path style="fill:#333333;" d="M297.599,202.498c-3.415,3.415-3.415,8.95,0,12.365c3.416,3.415,8.951,3.415,12.366,0
		c10.682-10.682,28.063-10.681,38.743,0c1.708,1.708,3.946,2.561,6.183,2.561c2.237,0,4.476-0.853,6.183-2.561
		c3.415-3.415,3.415-8.95,0-12.365C343.574,184.998,315.099,184.996,297.599,202.498z"/>
	<path style="fill:#333333;" d="M163.288,214.862c10.68-10.681,28.061-10.682,38.743,0c1.708,1.708,3.946,2.561,6.183,2.561
		c2.237,0,4.476-0.853,6.183-2.561c3.415-3.415,3.415-8.95,0-12.365c-17.501-17.501-45.976-17.499-63.476,0
		c-3.415,3.415-3.415,8.95,0,12.365S159.873,218.277,163.288,214.862z"/>
</g>
<circle style="fill:#FFFFFF;" cx="261.83" cy="342.585" r="8.744"/>
</svg>